<?xml version="1.0" encoding="UTF-8" standalone="no"?>
<!DOCTYPE svg PUBLIC "-//W3C//DTD SVG 1.0//EN" "http://www.w3.org/TR/2001/PR-SVG-20010719/DTD/svg10.dtd">
<svg width="8cm" height="4cm" viewBox="440 157 141 74" xmlns="http://www.w3.org/2000/svg" xmlns:xlink="http://www.w3.org/1999/xlink">
  <defs/>
  <g id="Background">
    <rect style="fill: #ffffff; fill-opacity: 1; stroke-opacity: 1; stroke-width: 0.705556; stroke: #000000" x="462.5" y="176.011" width="91.375" height="53.8125" rx="0" ry="0"/>
    <g>
      <line style="fill: none; stroke-opacity: 1; stroke-width: 0.705556; stroke: #000000" x1="444.25" y1="207.449" x2="466.148" y2="207.482"/>
      <polygon style="fill: #000000; fill-opacity: 1; stroke-opacity: 1; stroke-width: 0.705556; stroke: #000000" fill-rule="evenodd" points="469.148,207.487 465.145,209.481 466.148,207.482 465.151,205.481 "/>
    </g>
    <g>
      <line style="fill: none; stroke-opacity: 1; stroke-width: 0.705556; stroke: #000000" x1="546.783" y1="207.324" x2="569.711" y2="207.324"/>
      <polygon style="fill: #000000; fill-opacity: 1; stroke-opacity: 1; stroke-width: 0.705556; stroke: #000000" fill-rule="evenodd" points="572.711,207.324 568.711,209.324 569.711,207.324 568.711,205.324 "/>
    </g>
    <g>
      <line style="fill: none; stroke-opacity: 1; stroke-width: 0.705556; stroke: #000000" x1="500.302" y1="207.45" x2="512.621" y2="207.4"/>
      <polygon style="fill: #000000; fill-opacity: 1; stroke-opacity: 1; stroke-width: 0.705556; stroke: #000000" fill-rule="evenodd" points="515.621,207.388 511.629,209.404 512.621,207.4 511.613,205.404 "/>
    </g>
    <text font-size="6.77323" style="fill: #000000; fill-opacity: 1; stroke: none;text-anchor:start;font-family:sans-serif;font-style:normal;font-weight:normal" x="440" y="209.542">
      <tspan x="440" y="209.542">i</tspan>
    </text>
    <text font-size="6.77323" style="fill: #000000; fill-opacity: 1; stroke: none;text-anchor:start;font-family:sans-serif;font-style:normal;font-weight:normal" x="576" y="208.792">
      <tspan x="576" y="208.792">o</tspan>
    </text>
    <text font-size="6.77323" style="fill: #000000; fill-opacity: 1; stroke: none;text-anchor:start;font-family:sans-serif;font-style:normal;font-weight:normal" x="507.125" y="163.324">
      <tspan x="507.125" y="163.324">r</tspan>
    </text>
    <rect style="fill: #ffffff; fill-opacity: 1; stroke-opacity: 1; stroke-width: 0.4; stroke: #000000" x="470.125" y="200.449" width="30" height="14.125" rx="0" ry="0"/>
    <rect style="fill: #ffffff; fill-opacity: 1; stroke-opacity: 1; stroke-width: 0.4; stroke: #000000" x="516.587" y="200.261" width="30" height="14.125" rx="0" ry="0"/>
    <text font-size="6.77323" style="fill: #000000; fill-opacity: 1; stroke: none;text-anchor:start;font-family:sans-serif;font-style:normal;font-weight:normal" x="504.875" y="204.324">
      <tspan x="504.875" y="204.324">x</tspan>
    </text>
    <g>
      <line style="fill: none; stroke-opacity: 1; stroke-width: 0.705556; stroke: #000000" x1="508.5" y1="179.824" x2="508.5" y2="169.175"/>
      <polygon style="fill: #000000; fill-opacity: 1; stroke-opacity: 1; stroke-width: 0.705556; stroke: #000000" fill-rule="evenodd" points="508.5,166.175 510.5,170.175 508.5,169.175 506.5,170.175 "/>
    </g>
    <text font-size="6.77323" style="fill: #000000; fill-opacity: 1; stroke: none;text-anchor:start;font-family:sans-serif;font-style:normal;font-weight:normal" x="481.375" y="209.355">
      <tspan x="481.375" y="209.355">c1</tspan>
    </text>
    <text font-size="6.77323" style="fill: #000000; fill-opacity: 1; stroke: none;text-anchor:start;font-family:sans-serif;font-style:normal;font-weight:normal" x="528.125" y="209.355">
      <tspan x="528.125" y="209.355">c2</tspan>
    </text>
    <rect style="fill: #ffffff; fill-opacity: 1; stroke-opacity: 1; stroke-width: 0.4; stroke: #000000" x="493.125" y="180.011" width="30.75" height="11.875" rx="0" ry="0"/>
    <text font-size="5.64436" style="fill: #000000; fill-opacity: 1; stroke: none;text-anchor:start;font-family:sans-serif;font-style:normal;font-weight:normal" x="495.375" y="187.511">
      <tspan x="495.375" y="187.511">mappend</tspan>
    </text>
    <g>
      <polyline style="fill: none; stroke-opacity: 1; stroke-width: 0.4; stroke: #000000" points="485.125,200.258 485.125,185.73 489.473,185.771 "/>
      <polygon style="fill: #000000; fill-opacity: 1; stroke-opacity: 1; stroke-width: 0.4; stroke: #000000" fill-rule="evenodd" points="492.473,185.799 488.455,187.761 489.473,185.771 488.492,183.761 "/>
    </g>
    <g>
      <polyline style="fill: none; stroke-opacity: 1; stroke-width: 0.4; stroke: #000000" points="531.558,200.059 531.5,185.855 527.322,185.906 "/>
      <polygon style="fill: #000000; fill-opacity: 1; stroke-opacity: 1; stroke-width: 0.4; stroke: #000000" fill-rule="evenodd" points="524.322,185.943 528.297,183.894 527.322,185.906 528.346,187.894 "/>
    </g>
  </g>
</svg>
