<?xml version="1.0" encoding="UTF-8" standalone="no"?>
<!DOCTYPE svg PUBLIC "-//W3C//DTD SVG 1.0//EN" "http://www.w3.org/TR/2001/PR-SVG-20010719/DTD/svg10.dtd">
<svg width="8cm" height="4cm" viewBox="440 158 141 73" xmlns="http://www.w3.org/2000/svg" xmlns:xlink="http://www.w3.org/1999/xlink">
  <defs/>
  <g id="Background">
    <rect style="fill: #ffffff; fill-opacity: 1; stroke-opacity: 1; stroke-width: 0.705556; stroke: #000000" x="462.5" y="180.074" width="91.375" height="49.75" rx="0" ry="0"/>
    <g>
      <line style="fill: none; stroke-opacity: 1; stroke-width: 0.705556; stroke: #000000" x1="444.25" y1="207.449" x2="466.148" y2="207.482"/>
      <polygon style="fill: #000000; fill-opacity: 1; stroke-opacity: 1; stroke-width: 0.705556; stroke: #000000" fill-rule="evenodd" points="469.148,207.487 465.145,209.481 466.148,207.482 465.151,205.481 "/>
    </g>
    <g>
      <line style="fill: none; stroke-opacity: 1; stroke-width: 0.705556; stroke: #000000" x1="546.783" y1="207.324" x2="569.711" y2="207.324"/>
      <polygon style="fill: #000000; fill-opacity: 1; stroke-opacity: 1; stroke-width: 0.705556; stroke: #000000" fill-rule="evenodd" points="572.711,207.324 568.711,209.324 569.711,207.324 568.711,205.324 "/>
    </g>
    <g>
      <line style="fill: none; stroke-opacity: 1; stroke-width: 0.705556; stroke: #000000" x1="500.302" y1="207.45" x2="512.621" y2="207.4"/>
      <polygon style="fill: #000000; fill-opacity: 1; stroke-opacity: 1; stroke-width: 0.705556; stroke: #000000" fill-rule="evenodd" points="515.621,207.388 511.629,209.404 512.621,207.4 511.613,205.404 "/>
    </g>
    <text font-size="6.77323" style="fill: #000000; fill-opacity: 1; stroke: none;text-anchor:start;font-family:sans-serif;font-style:normal;font-weight:normal" x="440" y="209.542">
      <tspan x="440" y="209.542">i</tspan>
    </text>
    <text font-size="6.77323" style="fill: #000000; fill-opacity: 1; stroke: none;text-anchor:start;font-family:sans-serif;font-style:normal;font-weight:normal" x="576" y="208.792">
      <tspan x="576" y="208.792">o</tspan>
    </text>
    <text font-size="6.77323" style="fill: #000000; fill-opacity: 1; stroke: none;text-anchor:start;font-family:sans-serif;font-style:normal;font-weight:normal" x="503.125" y="164.449">
      <tspan x="503.125" y="164.449">r</tspan>
    </text>
    <rect style="fill: #ffffff; fill-opacity: 1; stroke-opacity: 1; stroke-width: 0.4; stroke: #000000" x="470.125" y="200.449" width="30" height="14.125" rx="0" ry="0"/>
    <rect style="fill: #ffffff; fill-opacity: 1; stroke-opacity: 1; stroke-width: 0.4; stroke: #000000" x="516.587" y="200.261" width="30" height="14.125" rx="0" ry="0"/>
    <text font-size="6.77323" style="fill: #000000; fill-opacity: 1; stroke: none;text-anchor:start;font-family:sans-serif;font-style:normal;font-weight:normal" x="504.875" y="204.324">
      <tspan x="504.875" y="204.324">x</tspan>
    </text>
    <g>
      <line style="fill: none; stroke-opacity: 1; stroke-width: 0.705556; stroke: #000000" x1="485.111" y1="200.243" x2="485.101" y2="194.639"/>
      <polygon style="fill: #000000; fill-opacity: 1; stroke-opacity: 1; stroke-width: 0.705556; stroke: #000000" fill-rule="evenodd" points="485.095,191.639 487.103,195.636 485.101,194.639 483.103,195.643 "/>
    </g>
    <g>
      <line style="fill: none; stroke-opacity: 1; stroke-width: 0.6; stroke-linecap: round; stroke: #000000" x1="485.094" y1="189.949" x2="485.094" y2="190.842"/>
      <line style="fill: none; stroke-opacity: 1; stroke-width: 0.6; stroke-linecap: round; stroke: #000000" x1="482.859" y1="189.949" x2="487.328" y2="189.949"/>
      <line style="fill: none; stroke-opacity: 1; stroke-width: 0.6; stroke-linecap: round; stroke: #000000" x1="483.485" y1="188.608" x2="486.702" y2="188.608"/>
      <line style="fill: none; stroke-opacity: 1; stroke-width: 0.6; stroke-linecap: round; stroke: #000000" x1="484.111" y1="187.267" x2="486.077" y2="187.267"/>
      <text font-size="6.77323" style="fill: #000000; fill-opacity: 1; stroke: none;text-anchor:start;font-family:sans-serif;font-style:normal;font-weight:normal" x="490.669" y="189.768">
        <tspan x="490.669" y="189.768"></tspan>
      </text>
    </g>
    <g>
      <polyline style="fill: none; stroke-opacity: 1; stroke-width: 0.8; stroke: #000000" points="531.587,200.261 531.587,189.605 504,189.605 504,170.749 "/>
      <polygon style="fill: #000000; fill-opacity: 1; stroke-opacity: 1; stroke-width: 0.8; stroke: #000000" fill-rule="evenodd" points="504,167.749 506,171.749 504,170.749 502,171.749 "/>
    </g>
    <text font-size="6.77323" style="fill: #000000; fill-opacity: 1; stroke: none;text-anchor:start;font-family:sans-serif;font-style:normal;font-weight:normal" x="481.375" y="209.355">
      <tspan x="481.375" y="209.355">c1</tspan>
    </text>
    <text font-size="6.77323" style="fill: #000000; fill-opacity: 1; stroke: none;text-anchor:start;font-family:sans-serif;font-style:normal;font-weight:normal" x="528.125" y="209.355">
      <tspan x="528.125" y="209.355">c2</tspan>
    </text>
  </g>
</svg>
