<?xml version="1.0" encoding="UTF-8" standalone="no"?>
<!DOCTYPE svg PUBLIC "-//W3C//DTD SVG 1.0//EN" "http://www.w3.org/TR/2001/PR-SVG-20010719/DTD/svg10.dtd">
<svg width="8cm" height="4cm" viewBox="440 156 141 74" xmlns="http://www.w3.org/2000/svg" xmlns:xlink="http://www.w3.org/1999/xlink">
  <defs/>
  <g id="Background">
    <rect style="fill: #ffffff; fill-opacity: 1; stroke-opacity: 1; stroke-width: 0.705556; stroke: #000000" x="462.5" y="176.011" width="91.375" height="53.8125" rx="0" ry="0"/>
    <g>
      <line style="fill: none; stroke-opacity: 1; stroke-width: 0.705556; stroke: #000000" x1="444.25" y1="207.449" x2="466.148" y2="207.482"/>
      <polygon style="fill: #000000; fill-opacity: 1; stroke-opacity: 1; stroke-width: 0.705556; stroke: #000000" fill-rule="evenodd" points="469.148,207.487 465.145,209.481 466.148,207.482 465.151,205.481 "/>
    </g>
    <g>
      <line style="fill: none; stroke-opacity: 1; stroke-width: 0.705556; stroke: #000000" x1="546.783" y1="207.324" x2="569.711" y2="207.324"/>
      <polygon style="fill: #000000; fill-opacity: 1; stroke-opacity: 1; stroke-width: 0.705556; stroke: #000000" fill-rule="evenodd" points="572.711,207.324 568.711,209.324 569.711,207.324 568.711,205.324 "/>
    </g>
    <g>
      <line style="fill: none; stroke-opacity: 1; stroke-width: 0.705556; stroke: #000000" x1="500.302" y1="207.45" x2="512.621" y2="207.4"/>
      <polygon style="fill: #000000; fill-opacity: 1; stroke-opacity: 1; stroke-width: 0.705556; stroke: #000000" fill-rule="evenodd" points="515.621,207.388 511.629,209.404 512.621,207.4 511.613,205.404 "/>
    </g>
    <text font-size="6.77323" style="fill: #000000; fill-opacity: 1; stroke: none;text-anchor:start;font-family:sans-serif;font-style:normal;font-weight:normal" x="440" y="209.542">
      <tspan x="440" y="209.542">i</tspan>
    </text>
    <text font-size="6.77323" style="fill: #000000; fill-opacity: 1; stroke: none;text-anchor:start;font-family:sans-serif;font-style:normal;font-weight:normal" x="576" y="208.792">
      <tspan x="576" y="208.792">o</tspan>
    </text>
    <text font-size="6.77323" style="fill: #000000; fill-opacity: 1; stroke: none;text-anchor:start;font-family:sans-serif;font-style:normal;font-weight:normal" x="507.25" y="163.261">
      <tspan x="507.25" y="163.261">r</tspan>
    </text>
    <rect style="fill: #ffffff; fill-opacity: 1; stroke-opacity: 1; stroke-width: 0.4; stroke: #000000" x="470.125" y="200.449" width="30" height="14.125" rx="0" ry="0"/>
    <rect style="fill: #ffffff; fill-opacity: 1; stroke-opacity: 1; stroke-width: 0.4; stroke: #000000" x="516.587" y="200.261" width="30" height="14.125" rx="0" ry="0"/>
    <text font-size="6.77323" style="fill: #000000; fill-opacity: 1; stroke: none;text-anchor:start;font-family:sans-serif;font-style:normal;font-weight:normal" x="504.875" y="204.324">
      <tspan x="504.875" y="204.324">x</tspan>
    </text>
    <g>
      <line style="fill: none; stroke-opacity: 1; stroke-width: 0.4; stroke: #000000" x1="508.544" y1="179.824" x2="508.51" y2="168.833"/>
      <polygon style="fill: #000000; fill-opacity: 1; stroke-opacity: 1; stroke-width: 0.4; stroke: #000000" fill-rule="evenodd" points="508.501,165.833 510.514,169.827 508.51,168.833 506.514,169.839 "/>
    </g>
    <text font-size="6.77323" style="fill: #000000; fill-opacity: 1; stroke: none;text-anchor:start;font-family:sans-serif;font-style:normal;font-weight:normal" x="481.375" y="209.355">
      <tspan x="481.375" y="209.355">c1</tspan>
    </text>
    <text font-size="6.77323" style="fill: #000000; fill-opacity: 1; stroke: none;text-anchor:start;font-family:sans-serif;font-style:normal;font-weight:normal" x="528.125" y="209.355">
      <tspan x="528.125" y="209.355">c2</tspan>
    </text>
    <rect style="fill: #ffffff; fill-opacity: 1; stroke-opacity: 1; stroke-width: 0.4; stroke: #000000" x="500.25" y="180.011" width="16.625" height="11.875" rx="0" ry="0"/>
    <text font-size="5.64436" style="fill: #000000; fill-opacity: 1; stroke: none;text-anchor:start;font-family:sans-serif;font-style:normal;font-weight:normal" x="503.75" y="187.636">
      <tspan x="503.75" y="187.636">&lt;&gt;</tspan>
    </text>
    <g>
      <polyline style="fill: none; stroke-opacity: 1; stroke-width: 0.4; stroke: #000000" points="485.125,200.331 485.125,185.886 496.647,185.917 "/>
      <polygon style="fill: #000000; fill-opacity: 1; stroke-opacity: 1; stroke-width: 0.4; stroke: #000000" fill-rule="evenodd" points="499.647,185.925 495.641,187.914 496.647,185.917 495.652,183.914 "/>
    </g>
    <g>
      <polyline style="fill: none; stroke-opacity: 1; stroke-width: 0.4; stroke: #000000" points="531.558,200.059 531.5,185.855 520.322,185.927 "/>
      <polygon style="fill: #000000; fill-opacity: 1; stroke-opacity: 1; stroke-width: 0.4; stroke: #000000" fill-rule="evenodd" points="517.322,185.946 521.309,183.92 520.322,185.927 521.335,187.92 "/>
    </g>
    <text font-size="6.77323" style="fill: #000000; fill-opacity: 1; stroke: none;text-anchor:start;font-family:sans-serif;font-style:normal;font-weight:normal" x="533.5" y="194.886">
      <tspan x="533.5" y="194.886">r</tspan>
    </text>
    <text font-size="6.77323" style="fill: #000000; fill-opacity: 1; stroke: none;text-anchor:start;font-family:sans-serif;font-style:normal;font-weight:normal" x="480.525" y="195.148">
      <tspan x="480.525" y="195.148">r</tspan>
    </text>
  </g>
</svg>
